<?xml version="1.0" encoding="UTF-8" standalone="no"?>
<svg
   width="1264.5179"
   height="1714.554"
   viewBox="6.527 4.399 273.62983 370.96501"
   version="1.1"
   id="svg7"
   sodipodi:docname="java.svg"
   inkscape:version="1.3.2 (091e20e, 2023-11-25, custom)"
   xmlns:inkscape="http://www.inkscape.org/namespaces/inkscape"
   xmlns:sodipodi="http://sodipodi.sourceforge.net/DTD/sodipodi-0.dtd"
   xmlns="http://www.w3.org/2000/svg"
   xmlns:svg="http://www.w3.org/2000/svg">
  <defs
     id="defs7" />
  <sodipodi:namedview
     id="namedview7"
     pagecolor="#ffffff"
     bordercolor="#000000"
     borderopacity="0.25"
     inkscape:showpageshadow="2"
     inkscape:pageopacity="0.0"
     inkscape:pagecheckerboard="0"
     inkscape:deskcolor="#d1d1d1"
     showgrid="false"
     inkscape:zoom="0.3252"
     inkscape:cx="673.43173"
     inkscape:cy="1250"
     inkscape:window-width="1920"
     inkscape:window-height="1009"
     inkscape:window-x="1912"
     inkscape:window-y="-8"
     inkscape:window-maximized="1"
     inkscape:current-layer="layer1" />
  <g
     inkscape:groupmode="layer"
     id="layer1"
     inkscape:label="Layer 1"
     transform="translate(-8.0282393,-0.03528125)">
    <path
       d="m 102.681,291.324 c 0,0 -14.178,8.245 10.09,11.035 29.4,3.354 44.426,2.873 76.825,-3.259 0,0 8.518,5.341 20.414,9.967 -72.63,31.128 -164.376,-1.803 -107.329,-17.743 m -8.875,-40.62 c 0,0 -15.902,11.771 8.384,14.283 31.406,3.24 56.208,3.505 99.125,-4.759 0,0 5.937,6.018 15.271,9.309 -87.815,25.678 -185.624,2.025 -122.78,-18.833"
       fill="#5382a1"
       id="path2" />
    <path
       d="m 168.625,181.799 c 17.896,20.604 -4.701,39.146 -4.701,39.146 0,0 45.439,-23.458 24.571,-52.833 -19.491,-27.395 -34.438,-41.005 46.479,-87.934 0.001,-10e-4 -127.013,31.721 -66.349,101.621"
       fill="#e76f00"
       id="path3" />
    <path
       d="m 264.684,321.369 c 0,0 10.492,8.646 -11.555,15.333 -41.923,12.7 -174.488,16.535 -211.314,0.507 -13.238,-5.76 11.587,-13.752 19.396,-15.429 8.144,-1.766 12.798,-1.437 12.798,-1.437 -14.722,-10.371 -95.157,20.363 -40.857,29.166 148.084,24.015 269.944,-10.814 231.532,-28.14 M 109.499,208.617 c 0,0 -67.431,16.016 -23.879,21.832 18.389,2.462 55.047,1.905 89.192,-0.956 27.906,-2.354 55.928,-7.358 55.928,-7.358 0,0 -9.84,4.214 -16.959,9.074 -68.475,18.01 -200.756,9.631 -162.674,-8.79 32.206,-15.568 58.392,-13.802 58.392,-13.802 m 120.963,67.614 c 69.608,-36.171 37.425,-70.932 14.96,-66.248 -5.506,1.146 -7.961,2.139 -7.961,2.139 0,0 2.045,-3.202 5.947,-4.588 44.441,-15.624 78.619,46.081 -14.346,70.521 0,0 1.079,-0.962 1.4,-1.824"
       fill="#5382a1"
       id="path4" />
    <path
       d="m 188.495,4.399 c 0,0 38.55,38.562 -36.563,97.862 -60.233,47.567 -13.735,74.689 -0.025,105.678 -35.158,-31.723 -60.96,-59.647 -43.65,-85.637 25.406,-38.151 95.792,-56.648 80.238,-117.903"
       fill="#e76f00"
       id="path5" />
    <path
       d="m 116.339,374.246 c 66.815,4.277 169.417,-2.373 171.846,-33.987 0,0 -4.67,11.984 -55.219,21.503 -57.027,10.731 -127.364,9.479 -169.081,2.601 0.002,-0.002 8.541,7.067 52.454,9.883"
       fill="#5382a1"
       id="path6" />
  </g>
</svg>
