<?xml version="1.0" encoding="UTF-8" standalone="no"?>
<svg
   width="2850.6799"
   height="4276.02"
   viewBox="0 0 2850.6799 4276.02"
   fill="none"
   version="1.1"
   id="svg5"
   sodipodi:docname="Figma.svg"
   inkscape:version="1.3.2 (091e20e, 2023-11-25, custom)"
   xmlns:inkscape="http://www.inkscape.org/namespaces/inkscape"
   xmlns:sodipodi="http://sodipodi.sourceforge.net/DTD/sodipodi-0.dtd"
   xmlns="http://www.w3.org/2000/svg"
   xmlns:svg="http://www.w3.org/2000/svg">
  <defs
     id="defs5" />
  <sodipodi:namedview
     id="namedview5"
     pagecolor="#ffffff"
     bordercolor="#000000"
     borderopacity="0.25"
     inkscape:showpageshadow="2"
     inkscape:pageopacity="0.0"
     inkscape:pagecheckerboard="0"
     inkscape:deskcolor="#d1d1d1"
     inkscape:zoom="0.11762153"
     inkscape:cx="-2099.9557"
     inkscape:cy="1866.155"
     inkscape:window-width="1920"
     inkscape:window-height="1009"
     inkscape:window-x="1912"
     inkscape:window-y="-8"
     inkscape:window-maximized="1"
     inkscape:current-layer="layer4" />
  <g
     inkscape:groupmode="layer"
     id="layer4"
     inkscape:label="Layer 1">
    <rect
       width="2850.6782"
       height="4276.02"
       fill="#000000"
       fill-opacity="0"
       id="rect1"
       x="0"
       y="0.00050029601"
       style="stroke-width:30" />
    <path
       d="m 1425.3398,2138.0059 c 0,-393.59 319.0701,-712.67 712.6701,-712.67 v 0 c 393.5901,0 712.6701,319.08 712.6701,712.67 v 0 c 0,393.6 -319.08,712.67 -712.6701,712.67 v 0 c -393.6,0 -712.6701,-319.07 -712.6701,-712.67 z"
       fill="#1abcfe"
       id="path1"
       style="stroke-width:10" />
    <path
       d="m 0,3563.3459 c 0,-393.59 319.07273,-712.67 712.66977,-712.67 h 712.67003 v 712.67 c 0,393.6 -319.07,712.67 -712.67003,712.67 v 0 C 319.07273,4276.0159 0,3956.9459 0,3563.3459 Z"
       fill="#0acf83"
       id="path2"
       style="stroke-width:10" />
    <path
       d="m 1425.3398,5e-4 v 1425.3354 h 712.6701 c 393.6001,0 712.6701,-319.07 712.6701,-712.666 v 0 C 2850.68,319.0739 2531.61,5e-4 2138.0099,5e-4 Z"
       fill="#ff7262"
       id="path3"
       style="stroke-width:10" />
    <path
       d="m 0,712.6699 c 0,393.596 319.07273,712.666 712.66977,712.666 H 1425.3398 V 0 H 712.66977 C 319.07273,0 0,319.0729 0,712.6699 Z"
       fill="#f24e1e"
       id="path4"
       style="stroke-width:10" />
    <path
       d="m 0,2138.0059 c 0,393.6 319.07273,712.67 712.66977,712.67 h 712.67003 v -1425.34 H 712.66977 C 319.07273,1425.3359 0,1744.4159 0,2138.0059 Z"
       fill="#a259ff"
       id="path5"
       style="stroke-width:10" />
  </g>
</svg>
