<?xml version="1.0" encoding="UTF-8" standalone="no"?>
<!-- Generator: Adobe Illustrator 19.1.0, SVG Export Plug-In . SVG Version: 6.00 Build 0)  -->

<svg
   version="1.1"
   id="Layer_1"
   x="0px"
   y="0px"
   viewBox="0 0 1400 1400"
   xml:space="preserve"
   sodipodi:docname="IntelliJ.svg"
   width="1400"
   height="1400"
   inkscape:version="1.3.2 (091e20e, 2023-11-25, custom)"
   xmlns:inkscape="http://www.inkscape.org/namespaces/inkscape"
   xmlns:sodipodi="http://sodipodi.sourceforge.net/DTD/sodipodi-0.dtd"
   xmlns="http://www.w3.org/2000/svg"
   xmlns:svg="http://www.w3.org/2000/svg"><defs
   id="defs35" /><sodipodi:namedview
   id="namedview35"
   pagecolor="#ffffff"
   bordercolor="#000000"
   borderopacity="0.25"
   inkscape:showpageshadow="2"
   inkscape:pageopacity="0.0"
   inkscape:pagecheckerboard="0"
   inkscape:deskcolor="#d1d1d1"
   inkscape:zoom="11.614286"
   inkscape:cx="34.95695"
   inkscape:cy="35"
   inkscape:window-width="1920"
   inkscape:window-height="1009"
   inkscape:window-x="1912"
   inkscape:window-y="-8"
   inkscape:window-maximized="1"
   inkscape:current-layer="Layer_1" />
<g
   id="g35"
   transform="scale(20)">
	<g
   id="g33">
		<linearGradient
   id="SVGID_1_"
   gradientUnits="userSpaceOnUse"
   x1="0.78979999"
   y1="40.089298"
   x2="33.3172"
   y2="40.089298">
			<stop
   offset="0.2581"
   style="stop-color:#F97A12"
   id="stop1" />
			<stop
   offset="0.4591"
   style="stop-color:#B07B58"
   id="stop2" />
			<stop
   offset="0.7241"
   style="stop-color:#577BAE"
   id="stop3" />
			<stop
   offset="0.9105"
   style="stop-color:#1E7CE5"
   id="stop4" />
			<stop
   offset="1"
   style="stop-color:#087CFA"
   id="stop5" />
		</linearGradient>
		<polygon
   style="fill:url(#SVGID_1_)"
   points="33.3,35 17.7,54.6 0.8,41.2 9.2,25.6 "
   id="polygon5" />
		<linearGradient
   id="SVGID_2_"
   gradientUnits="userSpaceOnUse"
   x1="25.767401"
   y1="24.879999"
   x2="79.424004"
   y2="54.57">
			<stop
   offset="0"
   style="stop-color:#F97A12"
   id="stop6" />
			<stop
   offset="7.179946e-002"
   style="stop-color:#CB7A3E"
   id="stop7" />
			<stop
   offset="0.1541"
   style="stop-color:#9E7B6A"
   id="stop8" />
			<stop
   offset="0.242"
   style="stop-color:#757B91"
   id="stop9" />
			<stop
   offset="0.3344"
   style="stop-color:#537BB1"
   id="stop10" />
			<stop
   offset="0.4324"
   style="stop-color:#387CCC"
   id="stop11" />
			<stop
   offset="0.5381"
   style="stop-color:#237CE0"
   id="stop12" />
			<stop
   offset="0.6552"
   style="stop-color:#147CEF"
   id="stop13" />
			<stop
   offset="0.7925"
   style="stop-color:#0B7CF7"
   id="stop14" />
			<stop
   offset="1"
   style="stop-color:#087CFA"
   id="stop15" />
		</linearGradient>
		<polygon
   style="fill:url(#SVGID_2_)"
   points="70,18.7 68.7,59.2 41.8,70 25.6,59.6 49.3,35 38.9,12.3 48.2,1.1 "
   id="polygon15" />
		<linearGradient
   id="SVGID_3_"
   gradientUnits="userSpaceOnUse"
   x1="63.227699"
   y1="42.915298"
   x2="48.290298"
   y2="-1.7191">
			<stop
   offset="0"
   style="stop-color:#FE315D"
   id="stop16" />
			<stop
   offset="7.840246e-002"
   style="stop-color:#CB417E"
   id="stop17" />
			<stop
   offset="0.1601"
   style="stop-color:#9E4E9B"
   id="stop18" />
			<stop
   offset="0.2474"
   style="stop-color:#755BB4"
   id="stop19" />
			<stop
   offset="0.3392"
   style="stop-color:#5365CA"
   id="stop20" />
			<stop
   offset="0.4365"
   style="stop-color:#386DDB"
   id="stop21" />
			<stop
   offset="0.5414"
   style="stop-color:#2374E9"
   id="stop22" />
			<stop
   offset="0.6576"
   style="stop-color:#1478F3"
   id="stop23" />
			<stop
   offset="0.794"
   style="stop-color:#0B7BF8"
   id="stop24" />
			<stop
   offset="1"
   style="stop-color:#087CFA"
   id="stop25" />
		</linearGradient>
		<polygon
   style="fill:url(#SVGID_3_)"
   points="48.2,1.1 70,18.7 48.7,43.9 38.9,12.3 "
   id="polygon25" />
		<linearGradient
   id="SVGID_4_"
   gradientUnits="userSpaceOnUse"
   x1="10.7204"
   y1="16.473"
   x2="55.523701"
   y2="90.580002">
			<stop
   offset="0"
   style="stop-color:#FE315D"
   id="stop26" />
			<stop
   offset="4.023279e-002"
   style="stop-color:#F63462"
   id="stop27" />
			<stop
   offset="0.1037"
   style="stop-color:#DF3A71"
   id="stop28" />
			<stop
   offset="0.1667"
   style="stop-color:#C24383"
   id="stop29" />
			<stop
   offset="0.2912"
   style="stop-color:#AD4A91"
   id="stop30" />
			<stop
   offset="0.5498"
   style="stop-color:#755BB4"
   id="stop31" />
			<stop
   offset="0.9175"
   style="stop-color:#1D76ED"
   id="stop32" />
			<stop
   offset="1"
   style="stop-color:#087CFA"
   id="stop33" />
		</linearGradient>
		<polygon
   style="fill:url(#SVGID_4_)"
   points="53.7,27.4 33.7,58.1 5.6,68.3 10.1,52.5 16,33.1 0,27.7 10.1,0 32.1,2.7 "
   id="polygon33" />
	</g>
	<g
   id="g34">
		<rect
   x="13.7"
   y="13.5"
   style="fill:#000000"
   width="43.200001"
   height="43.200001"
   id="rect33" />
		<rect
   x="17.700001"
   y="48.599998"
   style="fill:#ffffff"
   width="16.200001"
   height="2.7"
   id="rect34" />
		<polygon
   style="fill:#ffffff"
   points="20.4,37 29.4,37 29.4,33.7 26.9,33.7 26.9,22.4 29.4,22.4 29.4,19.1 20.4,19.1 20.4,22.4 23,22.4 23,33.7 20.4,33.7 "
   id="polygon34" />
		<path
   style="fill:#ffffff"
   d="M 38,37.3 C 36.6,37.3 35.4,37 34.5,36.5 33.6,36 32.8,35.3 32.2,34.6 l 2.5,-2.8 c 0.5,0.6 1,1 1.5,1.3 0.5,0.3 1.1,0.5 1.7,0.5 0.7,0 1.3,-0.2 1.8,-0.7 0.4,-0.5 0.6,-1.2 0.6,-2.3 V 19.1 h 4 v 11.7 c 0,1.1 -0.1,2 -0.4,2.8 -0.3,0.8 -0.7,1.4 -1.3,2 -0.5,0.5 -1.2,1 -2,1.2 -0.8,0.3 -1.6,0.5 -2.6,0.5"
   id="path34" />
	</g>
</g>
</svg>
