<?xml version="1.0" encoding="UTF-8" standalone="no"?>
<svg
   viewBox="0 0 2500 2500"
   version="1.1"
   id="svg2"
   sodipodi:docname="trello.svg"
   width="2500"
   height="2500"
   inkscape:version="1.3.2 (091e20e, 2023-11-25, custom)"
   xmlns:inkscape="http://www.inkscape.org/namespaces/inkscape"
   xmlns:sodipodi="http://sodipodi.sourceforge.net/DTD/sodipodi-0.dtd"
   xmlns="http://www.w3.org/2000/svg"
   xmlns:svg="http://www.w3.org/2000/svg">
  <sodipodi:namedview
     id="namedview2"
     pagecolor="#ffffff"
     bordercolor="#000000"
     borderopacity="0.25"
     inkscape:showpageshadow="2"
     inkscape:pageopacity="0.0"
     inkscape:pagecheckerboard="0"
     inkscape:deskcolor="#d1d1d1"
     inkscape:zoom="0.22456165"
     inkscape:cx="1157.8112"
     inkscape:cy="1378.2407"
     inkscape:window-width="1920"
     inkscape:window-height="1009"
     inkscape:window-x="1912"
     inkscape:window-y="-8"
     inkscape:window-maximized="1"
     inkscape:current-layer="svg2" />
  <defs
     id="defs2">
    <style
       id="style1">.cls-1{fill-rule:evenodd;fill:url(#linear-gradient);}</style>
    <linearGradient
       id="linear-gradient"
       x1="40"
       y1="70.470001"
       x2="40"
       y2="9.5299997"
       gradientUnits="userSpaceOnUse">
      <stop
         offset="0"
         stop-color="#0052cc"
         id="stop1" />
      <stop
         offset="1"
         stop-color="#2684ff"
         id="stop2" />
    </linearGradient>
  </defs>
  <g
     id="Logos"
     transform="matrix(41.023958,0,0,41.023958,-390.95832,-390.95832)">
    <path
       class="cls-1"
       d="M 63.22,9.53 H 16.78 a 7.26,7.26 0 0 0 -7.25,7.25 v 46.44 a 7.26,7.26 0 0 0 7.25,7.25 h 46.44 a 7.26,7.26 0 0 0 7.25,-7.25 V 16.78 A 7.26,7.26 0 0 0 63.22,9.53 Z M 35.78,53.42 a 2.41,2.41 0 0 1 -2.41,2.41 H 23.19 A 2.41,2.41 0 0 1 20.78,53.42 V 23.19 a 2.41,2.41 0 0 1 2.41,-2.41 h 10.18 a 2.41,2.41 0 0 1 2.41,2.41 z M 59.22,39.54 A 2.41,2.41 0 0 1 56.81,42 H 46.63 a 2.41,2.41 0 0 1 -2.41,-2.41 v -16.4 a 2.41,2.41 0 0 1 2.41,-2.41 h 10.18 a 2.41,2.41 0 0 1 2.41,2.41 z"
       id="path2"
       style="fill:url(#linear-gradient)" />
  </g>
</svg>
